<?xml version="1.0" encoding="utf-8"?>
<svg xmlns="http://www.w3.org/2000/svg" width="4096" height="2048" viewBox="100 200 824 624" xmlns:bx="https://boxy-svg.com"><defs><bx:export><bx:file format="svg" path="logo_text.svg" normalization="{&quot;removeBoxySVGMetadata&quot;:true,&quot;convertTextsToPaths&quot;:true}"/></bx:export></defs><path d="M 692.87 416.67 C693.44,419.63 693.66,422.00 693.24,422.43 C692.83,422.84 692.56,424.66 692.46,426.65 C692.38,426.24 692.21,426.00 691.97,426.00 C691.44,426.00 691.00,428.38 691.00,431.29 C691.00,435.10 690.44,438.97 689.40,442.74 C689.41,442.67 689.43,442.61 689.45,442.54 C691.01,436.55 691.54,426.87 690.38,425.71 C689.78,425.11 687.70,426.44 685.04,428.89 C687.81,426.07 690.29,423.85 691.61,423.17 C693.50,422.19 693.64,421.67 692.87,416.67 ZM 590.45 392.00 C591.67,389.36 592.24,386.49 592.21,383.32 C592.18,380.20 592.60,378.00 593.23,378.00 C593.93,378.00 594.10,380.49 593.73,385.37 L 593.72 385.48 C593.59,385.17 593.38,385.00 593.09,385.00 C592.49,385.00 592.00,386.07 592.00,387.39 C592.00,388.65 591.42,390.27 590.45,392.00 ZM 437.66 312.25 C436.23,310.37 435.11,308.91 434.82,308.57 C434.40,308.07 433.45,309.27 432.16,311.62 L 433.74 308.27 L 430.99 300.04 C433.17,306.23 433.90,306.67 435.38,304.75 C435.56,304.52 435.75,304.29 435.93,304.09 C435.72,304.50 435.54,304.99 435.40,305.53 C435.02,307.06 435.90,309.45 437.66,312.25 ZM 676.24 438.82 C670.29,446.87 664.87,457.88 661.65,468.31 C664.48,459.04 668.76,449.71 673.56,442.47 C674.29,441.38 675.20,440.14 676.24,438.82 ZM 427.91 320.78 C423.17,332.02 417.46,348.31 415.39,357.93 C417.48,348.22 422.94,332.12 427.91,320.78 ZM 425.88 274.03 C425.44,264.16 426.60,253.97 429.37,243.50 C426.69,253.64 425.52,264.15 425.88,274.03 ZM 692.43 428.60 C692.44,430.48 692.62,432.13 692.99,432.48 C692.96,432.47 692.93,432.46 692.90,432.44 C692.27,432.05 692.05,430.52 692.37,428.88 C692.39,428.78 692.41,428.69 692.43,428.60 ZM 592.10 394.05 C590.98,397.59 589.40,400.43 587.57,401.94 C589.14,400.64 590.85,397.37 592.10,394.05 ZM 682.54 459.39 C680.44,462.15 678.64,464.00 677.81,464.00 C678.33,464.00 680.39,461.98 682.54,459.39 ZM 521.41 343.10 C521.65,342.72 520.93,342.00 519.07,341.25 C518.93,341.19 518.77,341.13 518.59,341.07 C520.76,341.71 521.87,342.40 521.50,343.01 C521.47,343.04 521.45,343.07 521.41,343.10 ZM 437.13 303.05 C437.20,303.02 437.26,303.00 437.31,303.00 C437.63,303.00 439.50,305.42 441.46,308.38 C439.67,305.67 437.82,303.41 437.13,303.05 ZM 571.00 408.10 C571.00,407.62 572.99,403.46 575.42,398.86 C573.11,403.23 571.21,407.30 571.03,408.24 C571.01,408.20 571.00,408.16 571.00,408.10 ZM 693.44 432.35 C693.79,431.77 694.00,430.05 694.00,427.62 C694.00,430.31 693.82,431.86 693.44,432.35 ZM 518.00 342.94 C518.45,343.08 518.86,343.18 519.23,343.25 C518.76,343.18 518.26,343.07 517.74,342.93 C517.48,342.85 517.11,342.78 516.66,342.70 C517.27,342.78 517.73,342.86 518.00,342.94 ZM 515.53 340.33 C512.95,339.83 509.53,339.35 506.33,339.08 C505.83,339.04 505.34,339.00 504.86,338.95 C505.20,338.98 505.54,339.01 505.89,339.04 C509.58,339.35 512.91,339.81 515.53,340.33 ZM 572.16 407.95 C572.81,407.37 574.17,406.41 575.82,405.35 C574.41,406.27 573.26,407.07 572.75,407.50 C572.54,407.68 572.34,407.83 572.16,407.95 ZM 457.37 331.26 C456.81,330.89 456.27,330.51 455.73,330.14 C455.80,330.18 455.86,330.23 455.93,330.27 C456.46,330.63 456.94,330.96 457.37,331.26 ZM 495.39 341.71 C494.08,341.46 494.03,340.99 494.26,340.11 C494.03,340.97 494.09,341.45 495.39,341.71 Z" style="fill: rgb(71, 71, 71);"/><path d="M 692.87 416.67 C692.85,416.55 692.83,416.42 692.81,416.29 C692.31,413.11 690.83,408.14 689.51,405.25 C689.25,404.68 689.02,404.14 688.81,403.62 C690.03,406.01 691.66,410.70 692.56,414.31 C693.77,419.10 694.58,420.71 695.60,420.32 C696.37,420.03 697.00,419.45 697.00,419.05 C697.00,418.63 696.78,417.74 696.42,416.59 C697.13,418.32 697.83,419.42 698.23,419.34 C698.20,419.37 698.17,419.40 698.13,419.42 C697.51,419.80 697.00,421.64 697.00,423.51 C697.00,426.91 696.32,430.90 695.02,435.22 C695.44,433.28 695.65,431.26 695.81,428.61 C696.15,422.87 695.96,420.90 695.14,421.42 C694.51,421.80 694.00,424.59 694.00,427.62 C694.00,430.05 693.79,431.77 693.44,432.35 C693.31,432.51 693.16,432.56 692.99,432.48 C692.62,432.13 692.44,430.48 692.43,428.60 C692.56,427.81 692.56,427.12 692.46,426.65 C692.56,424.66 692.83,422.84 693.24,422.43 C693.66,422.00 693.44,419.63 692.87,416.67 ZM 724.79 403.58 C724.66,412.16 724.25,419.00 723.87,419.00 C723.46,419.00 722.99,417.76 722.82,416.25 C722.54,413.82 722.09,413.51 719.00,413.54 C717.39,413.56 715.07,413.81 713.37,414.13 C714.02,413.96 714.71,413.77 715.43,413.56 C719.84,412.28 721.34,411.41 720.90,408.81 C721.44,410.02 721.86,410.21 722.26,409.50 C722.61,408.88 722.51,407.48 722.06,405.92 L 723.70 410.24 L 724.35 407.00 C724.54,406.04 724.69,404.89 724.79,403.58 ZM 577.85 499.26 C577.10,494.62 576.08,492.11 576.03,495.75 C576.01,496.99 575.52,498.00 574.94,498.00 C574.36,498.00 574.11,497.63 574.40,497.17 C574.91,496.33 571.77,491.29 569.95,489.57 C570.54,490.11 571.39,491.16 572.46,492.73 L 575.00 496.46 L 575.00 492.03 C575.00,484.47 576.65,488.78 577.85,499.26 ZM 513.67 432.33 C512.61,431.28 512.89,426.00 514.00,426.00 C514.55,426.00 515.00,427.58 515.00,429.50 C515.00,433.10 514.82,433.48 513.67,432.33 ZM 535.64 399.37 C535.02,396.86 534.32,394.41 533.95,393.50 C533.51,392.40 532.97,390.86 532.76,390.07 C532.55,389.29 531.57,392.97 530.57,398.26 C529.68,402.98 529.20,408.02 529.10,412.81 C529.18,408.01 529.64,402.95 530.48,398.18 C532.87,384.73 533.11,384.46 534.55,393.50 C534.89,395.60 535.25,397.54 535.64,399.37 ZM 620.00 301.71 C620.00,301.02 619.93,300.30 619.80,299.57 C620.41,301.55 620.67,301.45 621.06,299.86 C621.23,299.16 621.34,298.53 621.37,297.94 C622.36,301.54 622.50,305.00 621.13,305.00 C620.51,305.00 620.00,303.52 620.00,301.71 ZM 664.93 371.00 C665.68,371.00 666.25,373.96 666.44,377.27 C666.31,376.74 666.13,376.25 665.91,375.83 L 664.70 373.57 L 663.89 375.78 C663.35,377.23 662.17,378.51 660.55,379.53 C662.44,378.20 663.60,376.38 663.81,374.22 C663.99,372.45 664.49,371.00 664.93,371.00 ZM 706.51 428.49 C706.27,428.85 706.10,428.66 706.06,427.75 C705.95,424.57 704.53,425.96 702.05,431.68 C700.71,434.79 699.47,436.91 699.30,436.39 C699.29,436.38 699.29,436.37 699.29,436.36 C699.71,437.20 703.59,428.60 704.62,424.50 L 705.37 421.50 L 705.97 425.50 C706.23,427.17 706.37,428.14 706.51,428.49 ZM 689.60 467.27 C689.94,467.60 690.02,468.44 689.79,469.14 C689.45,470.15 689.21,470.15 688.58,469.13 C687.75,467.78 688.59,466.25 689.60,467.27 ZM 616.48 288.98 C612.60,284.20 611.68,281.66 612.17,277.47 C612.34,276.09 613.10,274.78 613.97,273.93 C613.11,275.01 612.36,276.75 612.23,278.60 C611.99,282.09 612.63,283.95 616.48,288.98 ZM 712.98 392.90 C708.85,386.38 704.21,380.03 702.58,379.12 C704.31,379.97 708.89,386.28 712.98,392.90 ZM 619.08 297.05 C618.24,294.79 616.81,292.45 614.89,290.16 C617.24,292.69 618.35,294.59 619.08,297.05 ZM 662.24 392.00 C663.84,390.42 665.21,387.59 665.99,384.63 C665.13,388.15 663.87,390.62 662.24,392.00 ZM 710.71 414.75 L 709.43 415.06 L 708.20 407.57 C708.90,411.63 709.48,414.69 709.59,414.84 C709.65,414.91 710.06,414.88 710.71,414.75 ZM 724.69 389.20 C724.38,384.79 723.86,380.36 723.14,376.70 C723.99,380.99 724.47,384.56 724.69,389.20 ZM 698.48 410.54 C697.53,403.46 695.27,393.80 692.83,388.11 C695.37,394.03 697.60,403.54 698.48,410.54 ZM 609.36 284.73 C606.23,281.77 604.39,279.22 603.55,276.61 C604.35,279.02 606.11,281.45 609.36,284.73 ZM 708.95 417.16 C709.00,415.87 708.42,415.97 706.46,416.40 L 709.15 415.81 ZM 708.53 420.05 L 708.44 420.65 C708.11,422.90 707.68,424.93 707.28,426.39 C707.63,424.82 708.17,422.09 708.53,420.05 ZM 692.95 407.47 C693.79,409.28 694.58,411.24 695.22,413.10 C694.53,411.24 693.72,409.23 692.95,407.47 ZM 721.11 365.89 C721.17,367.06 721.73,369.77 723.00,376.00 C721.70,369.76 721.14,367.06 721.11,365.89 ZM 687.87 400.12 C687.90,400.04 687.95,400.00 688.01,400.00 C688.39,400.00 688.98,400.58 689.67,401.55 C688.79,400.42 688.15,399.95 687.87,400.12 ZM 579.66 513.75 C579.88,515.04 579.96,515.93 579.92,516.47 C579.96,515.93 579.87,515.04 579.64,513.75 C579.43,512.60 579.13,510.26 578.84,507.72 C579.18,510.51 579.49,512.78 579.66,513.75 ZM 721.05 403.26 C720.29,401.43 720.00,400.62 720.17,400.38 C720.09,400.67 720.37,401.48 721.05,403.26 ZM 655.96 392.79 C656.78,393.09 657.82,393.28 658.75,393.32 C657.88,393.33 656.95,393.16 655.96,392.79 ZM 569.07 490.61 C569.33,491.55 569.80,492.84 570.42,494.25 C569.73,492.68 569.29,491.46 569.07,490.61 Z" style="fill: rgb(71, 71, 71);"/><path d="M 522.715 598.629 C 518.985 596.929 515.335 593.319 515.335 591.319 C 515.335 590.889 516.455 590.539 517.835 590.539 C 519.215 590.539 520.335 590.999 520.335 591.549 C 520.335 592.109 521.795 593.459 523.585 594.549 C 529.325 598.049 539.735 596.499 542.175 591.779 C 543.565 589.079 544.535 582.539 543.535 582.539 C 543.045 582.539 541.875 583.389 540.925 584.439 C 538.435 587.189 531.515 588.709 527.045 587.469 C 519.715 585.449 514.305 578.569 514.355 571.319 C 514.395 566.069 517.655 560.119 521.965 557.459 C 527.255 554.189 535.915 554.119 540.235 557.309 C 543.935 560.039 544.335 560.069 544.335 557.539 C 544.335 556.179 545.005 555.539 546.415 555.539 C 548.465 555.539 548.495 555.869 548.165 572.789 C 547.885 586.949 547.515 590.619 546.065 593.279 C 542.415 599.969 531.285 602.519 522.715 598.629 Z M 538.455 581.939 C 541.245 580.539 544.335 575.109 544.335 571.609 C 544.335 568.009 541.645 562.789 538.835 560.949 C 535.495 558.759 528.805 558.709 524.675 560.859 C 520.305 563.119 517.655 569.959 519.255 574.809 C 521.995 583.109 530.125 586.129 538.455 581.939 Z M 289.335 577.539 L 289.335 555.539 L 291.835 555.539 C 293.855 555.539 294.335 556.029 294.335 558.129 L 294.335 560.719 L 297.365 558.169 C 302.905 553.509 310.905 553.559 317.195 558.279 C 321.705 561.669 323.655 566.639 323.105 573.299 C 322.055 585.979 309.645 592.429 298.675 585.999 L 294.335 583.459 L 294.335 591.499 C 294.335 599.409 294.295 599.539 291.835 599.539 L 289.335 599.539 L 289.335 577.539 Z M 314.195 582.009 C 322.115 575.339 319.985 562.199 310.575 559.589 C 302.055 557.239 294.305 562.869 294.375 571.369 C 294.385 573.939 294.985 577.079 295.685 578.349 C 299.195 584.659 308.785 586.559 314.195 582.009 Z M 171.035 587.909 C 170.655 587.519 170.335 581.029 170.335 573.489 C 170.335 560.609 170.215 559.739 168.335 559.249 C 167.235 558.959 166.335 558.009 166.335 557.129 C 166.335 556.209 167.175 555.539 168.335 555.539 C 170.025 555.539 170.335 554.869 170.335 551.259 C 170.335 544.969 172.445 542.539 177.895 542.539 C 181.665 542.539 182.335 542.839 182.335 544.539 C 182.335 546.159 181.665 546.539 178.835 546.539 C 175.355 546.539 175.335 546.559 175.335 551.039 C 175.335 555.369 175.445 555.539 178.335 555.539 C 180.665 555.539 181.335 555.979 181.335 557.539 C 181.335 559.089 180.665 559.539 178.365 559.539 L 175.385 559.539 L 175.115 573.779 C 174.885 585.689 174.585 588.059 173.285 588.309 C 172.435 588.479 171.425 588.289 171.035 587.909 Z M 201.255 586.269 C 195.725 582.539 193.335 578.099 193.335 571.539 C 193.335 564.399 196.025 559.989 202.345 556.719 C 215.055 550.159 229.445 561.269 226.295 575.209 C 223.755 586.479 210.355 592.399 201.255 586.269 Z M 217.915 581.289 C 223.845 575.849 223.685 566.319 217.565 561.509 C 214.435 559.039 205.825 558.809 202.555 561.099 C 197.185 564.859 195.815 572.989 199.615 578.629 C 204.235 585.489 212.085 586.629 217.915 581.289 Z M 240.035 587.909 C 239.655 587.519 239.335 580.079 239.335 571.369 L 239.335 555.539 L 241.835 555.539 C 243.495 555.539 244.335 556.099 244.335 557.189 C 244.335 558.729 244.465 558.729 246.155 557.209 C 248.525 555.049 253.875 553.989 254.795 555.479 C 255.815 557.129 253.475 559.539 250.865 559.539 C 246.155 559.539 244.875 562.739 244.335 575.879 C 243.925 585.779 243.545 588.069 242.285 588.309 C 241.435 588.479 240.425 588.289 240.035 587.909 Z M 337.035 587.909 C 336.655 587.519 336.335 580.079 336.335 571.369 L 336.335 555.539 L 338.945 555.539 C 340.845 555.539 341.395 555.939 340.975 557.039 C 340.195 559.059 341.025 558.929 344.065 556.539 C 346.805 554.389 350.815 553.889 351.865 555.579 C 352.745 557.009 350.495 559.539 348.885 558.919 C 348.175 558.649 346.295 559.529 344.705 560.889 C 341.895 563.309 341.825 563.619 341.335 575.689 C 340.925 585.759 340.555 588.069 339.285 588.309 C 338.435 588.479 337.425 588.289 337.035 587.909 Z M 363.005 587.869 C 362.635 587.509 362.335 580.079 362.335 571.369 C 362.335 556.209 362.415 555.539 364.335 555.539 C 366.255 555.539 366.335 556.209 366.335 572.039 C 366.335 585.119 366.055 588.539 365.005 588.539 C 364.265 588.539 363.365 588.239 363.005 587.869 Z M 382.335 572.109 C 382.335 556.209 382.415 555.539 384.335 555.539 C 385.815 555.539 386.335 556.209 386.335 558.129 L 386.335 560.719 L 389.365 558.169 C 395.155 553.289 404.285 553.869 408.005 559.339 C 409.545 561.609 409.835 564.089 409.835 575.019 C 409.835 586.589 409.645 588.039 408.085 588.339 C 406.505 588.649 406.325 587.619 406.275 577.859 C 406.205 563.879 405.055 560.339 400.165 559.129 C 397.585 558.499 395.565 558.619 393.345 559.539 C 388.065 561.719 386.895 564.649 386.335 576.979 C 385.905 586.459 385.585 588.069 384.085 588.349 C 382.475 588.659 382.335 587.359 382.335 572.109 Z M 430.005 587.869 C 429.635 587.509 429.335 581.009 429.335 573.439 L 429.335 559.669 L 426.595 559.359 C 422.745 558.909 422.295 555.789 426.025 555.359 C 428.705 555.059 428.845 554.759 429.135 549.289 C 429.385 544.409 429.725 543.539 431.335 543.539 C 432.945 543.539 433.285 544.409 433.535 549.289 C 433.835 554.999 433.855 555.039 437.145 555.359 C 441.645 555.789 441.205 558.909 436.575 559.349 L 433.335 559.669 L 433.335 574.099 C 433.335 585.469 433.055 588.539 432.005 588.539 C 431.265 588.539 430.365 588.239 430.005 587.869 Z M 453.035 587.909 C 452.655 587.519 452.335 580.079 452.335 571.369 L 452.335 555.539 L 454.855 555.539 L 457.385 555.539 L 457.105 571.779 C 456.875 585.499 456.595 588.059 455.285 588.309 C 454.435 588.479 453.425 588.289 453.035 587.909 Z M 472.335 572.109 C 472.335 556.209 472.415 555.539 474.335 555.539 C 475.815 555.539 476.335 556.209 476.335 558.129 L 476.335 560.719 L 479.365 558.169 C 485.725 552.809 495.265 553.999 498.595 560.559 C 500.985 565.259 500.765 588.039 498.335 588.039 C 497.115 588.039 496.745 585.809 496.325 576.039 C 495.815 564.049 494.815 560.319 491.785 559.159 C 487.305 557.439 481.075 559.629 478.275 563.909 C 477.385 565.249 476.685 570.099 476.355 577.029 C 475.905 586.459 475.585 588.069 474.085 588.349 C 472.475 588.659 472.335 587.359 472.335 572.109 Z M 586.895 586.409 C 584.485 584.519 584.345 584.099 585.665 582.779 C 586.975 581.469 587.415 581.479 589.465 582.919 C 594.045 586.119 599.335 583.999 599.335 578.959 C 599.335 577.099 598.065 575.699 594.045 573.129 C 587.275 568.799 585.935 567.119 585.935 562.999 C 585.935 556.309 592.885 552.809 599.735 556.059 C 603.575 557.879 603.965 558.509 602.255 560.219 C 601.475 560.999 600.335 560.889 598.205 559.829 C 594.575 558.009 590.695 558.839 589.815 561.609 C 589.005 564.159 591.405 567.019 596.515 569.629 C 601.285 572.059 603.335 575.089 603.335 579.669 C 603.335 587.209 593.185 591.359 586.895 586.409 Z M 624.325 586.289 C 618.395 582.249 616.835 579.189 616.835 571.539 C 616.835 563.369 618.635 560.249 625.395 556.719 C 635.545 551.419 647.555 557.339 649.035 568.379 L 649.595 572.539 L 634.965 572.539 C 625.415 572.539 620.335 572.899 620.335 573.589 C 620.335 575.649 623.345 580.399 625.945 582.449 C 630.685 586.179 640.685 584.499 643.345 579.529 C 644.475 577.399 646.815 576.889 647.835 578.549 C 648.825 580.139 644.715 585.129 640.955 586.919 C 635.905 589.309 628.345 589.029 624.325 586.289 Z M 644.335 567.169 C 644.335 564.749 640.395 560.709 636.885 559.559 C 632.325 558.049 626.115 559.729 623.385 563.199 C 619.515 568.119 620.255 568.539 632.835 568.539 C 641.885 568.539 644.335 568.249 644.335 567.169 Z M 663.005 587.869 C 662.635 587.509 662.335 580.049 662.335 571.299 L 662.335 555.399 L 664.585 555.739 C 665.825 555.929 666.725 556.639 666.585 557.309 C 666.235 559.039 667.135 558.839 670.065 556.539 C 672.805 554.389 676.815 553.889 677.865 555.579 C 678.745 557.009 676.495 559.539 674.885 558.919 C 674.175 558.649 672.325 559.509 670.775 560.839 C 668.415 562.869 667.845 564.339 667.205 570.149 C 666.785 573.939 666.415 579.629 666.385 582.789 C 666.345 586.889 665.955 588.539 665.005 588.539 C 664.265 588.539 663.365 588.239 663.005 587.869 Z M 729.335 572.109 C 729.335 556.139 729.405 555.539 731.355 555.539 C 733.325 555.539 733.375 556.049 733.105 571.779 C 732.865 586.319 732.655 588.049 731.085 588.349 C 729.475 588.659 729.335 587.359 729.335 572.109 Z M 756.835 586.959 C 750.025 583.409 747.335 579.019 747.335 571.459 C 747.335 562.459 753.135 556.219 762.705 554.899 C 770.695 553.809 781.395 559.349 778.355 563.009 C 777.255 564.339 776.745 564.219 774.195 562.069 C 762.915 552.579 746.225 564.759 752.885 577.629 C 756.455 584.539 767.355 586.909 773.155 582.039 C 776.385 579.319 777.855 578.949 778.875 580.599 C 779.785 582.069 776.485 585.539 772.615 587.179 C 768.315 588.999 760.535 588.889 756.835 586.959 Z M 801.255 586.269 C 795.725 582.539 793.335 578.099 793.335 571.539 C 793.335 565.249 795.535 560.929 800.655 557.129 C 804.635 554.179 815.015 554.169 818.945 557.099 C 823.335 560.379 825.585 564.059 825.715 568.199 L 825.835 572.039 L 811.485 572.319 L 797.135 572.599 L 797.765 575.319 C 798.115 576.819 799.955 579.499 801.855 581.289 C 804.695 583.969 806.105 584.539 809.815 584.539 C 813.565 584.539 814.985 583.949 818.205 581.039 C 822.155 577.469 823.775 576.829 824.785 578.459 C 825.565 579.719 820.705 585.299 817.265 587.079 C 812.885 589.339 805.245 588.949 801.255 586.269 Z M 820.895 567.439 C 822.015 565.619 817.905 561.129 813.885 559.779 C 809.005 558.149 803.205 559.619 800.385 563.199 C 796.545 568.089 797.305 568.539 809.275 568.539 C 816.155 568.539 820.465 568.129 820.895 567.439 Z M 841.085 586.779 C 839.575 585.839 838.335 584.529 838.335 583.869 C 838.335 581.729 840.355 581.319 842.845 582.949 C 846.425 585.299 850.015 584.949 851.895 582.089 C 854.245 578.499 852.945 576.069 846.835 572.629 C 841.075 569.379 839.335 567.189 839.335 563.189 C 839.335 559.349 840.325 557.589 843.405 555.999 C 847.275 553.999 850.215 554.169 854.225 556.619 C 857.215 558.439 857.445 558.859 856.145 560.159 C 854.845 561.459 854.305 561.429 851.605 559.879 C 849.045 558.409 848.105 558.319 845.875 559.339 C 843.775 560.299 843.275 561.139 843.515 563.289 C 843.765 565.399 845.095 566.779 849.315 569.299 C 855.705 573.109 857.785 576.349 856.885 581.109 C 855.655 587.699 847.365 590.679 841.085 586.779 Z M 693.775 572.409 C 689.955 564.079 686.685 556.879 686.505 556.409 C 686.315 555.929 687.215 555.549 688.505 555.559 C 690.505 555.579 691.535 557.159 695.725 566.559 C 698.415 572.599 700.935 577.539 701.325 577.539 C 701.715 577.539 704.235 572.589 706.925 566.539 C 711.115 557.109 712.145 555.539 714.135 555.539 C 715.405 555.539 716.285 555.879 716.075 556.289 C 715.865 556.699 712.575 563.899 708.775 572.289 C 704.975 580.679 701.605 587.539 701.285 587.539 C 700.965 587.539 697.585 580.729 693.775 572.409 Z M 362.375 548.089 C 360.565 545.909 361.535 543.079 364.235 542.699 C 367.935 542.179 369.435 545.299 366.765 547.969 C 364.815 549.919 363.915 549.939 362.375 548.089 Z M 452.865 548.189 C 450.095 546.159 451.305 543.039 454.845 543.039 C 457.155 543.039 457.905 543.539 458.145 545.219 C 458.565 548.139 455.295 549.969 452.865 548.189 Z M 728.895 547.599 C 726.585 545.049 727.545 542.539 730.835 542.539 C 733.725 542.539 735.165 544.999 733.675 547.369 C 732.185 549.729 730.875 549.789 728.895 547.599 Z M 163.335 523.539 L 163.335 520.539 L 512.405 520.539 L 861.465 520.539 L 861.155 523.289 L 860.835 526.039 L 512.085 526.289 L 163.335 526.539 L 163.335 523.539 Z M 809.335 477.589 L 809.335 443.539 L 815.335 443.539 C 821.075 443.539 821.335 443.649 821.335 446.049 L 821.335 448.569 L 825.305 445.939 C 828.185 444.029 830.995 443.189 835.555 442.849 C 841.015 442.439 842.555 442.749 847.335 445.209 C 859.955 451.699 864.025 469.309 855.995 482.689 C 849.165 494.079 835.845 497.769 825.895 491.009 C 823.885 489.649 822.055 488.539 821.825 488.539 C 821.595 488.539 821.275 493.599 821.115 499.789 L 820.835 511.039 L 815.085 511.339 L 809.335 511.639 L 809.335 477.589 Z M 841.135 480.869 C 848.925 475.999 849.505 461.279 842.115 456.099 C 839.265 454.099 831.135 454.079 827.305 456.059 C 822.905 458.329 821.035 462.759 821.545 469.699 C 821.885 474.459 822.505 476.099 824.865 478.569 C 829.515 483.429 835.645 484.289 841.135 480.869 Z M 173.775 492.649 C 169.375 490.649 162.095 482.939 162.555 480.749 C 162.705 480.009 164.895 478.229 167.415 476.799 L 172.005 474.209 L 176.165 478.369 C 181.155 483.359 185.075 483.889 188.885 480.089 C 190.235 478.739 191.335 477.139 191.335 476.539 C 191.335 474.009 188.155 469.629 183.645 465.979 C 169.175 454.229 165.335 448.949 165.335 440.829 C 165.345 431.559 172.285 425.119 182.305 425.079 C 190.105 425.039 192.825 426.029 197.935 430.739 L 202.425 434.879 L 198.215 439.169 L 194.005 443.449 L 190.635 440.499 C 184.845 435.409 175.495 437.089 178.025 442.769 C 178.555 443.959 183.455 448.819 188.915 453.559 C 201.495 464.479 203.525 467.779 203.095 476.649 C 202.845 482.099 202.285 483.919 199.925 487.009 C 194.495 494.129 182.655 496.689 173.775 492.649 Z M 232.305 492.999 C 226.375 491.179 220.105 485.719 217.455 480.079 C 214.665 474.129 214.555 462.809 217.235 457.039 C 221.265 448.369 230.535 442.539 240.275 442.539 C 248.635 442.539 254.685 445.019 259.565 450.449 C 264.395 455.819 266.335 460.829 266.335 467.909 L 266.335 472.539 L 246.765 472.539 L 227.205 472.539 L 227.885 474.789 C 228.845 477.939 230.975 480.139 234.825 481.969 C 239.525 484.199 244.165 483.899 249.155 481.049 L 253.475 478.579 L 258.635 481.189 L 263.795 483.809 L 259.525 487.589 C 252.175 494.119 242.295 496.079 232.305 492.999 Z M 253.615 461.929 C 254.625 460.909 251.235 456.539 248.235 454.989 C 244.595 453.099 237.015 453.139 233.315 455.049 C 230.485 456.509 228.335 459.289 228.335 461.469 C 228.335 462.619 252.495 463.049 253.615 461.929 Z M 351.955 493.069 C 347.245 491.389 340.925 485.469 338.045 480.039 C 335.035 474.349 335.035 461.729 338.055 455.969 C 340.795 450.749 347.035 445.129 351.845 443.539 C 356.795 441.899 365.475 442.829 369.945 445.469 C 371.875 446.609 373.645 447.539 373.895 447.539 C 374.135 447.539 374.335 442.369 374.335 436.039 L 374.335 424.539 L 380.335 424.539 L 386.335 424.539 L 386.335 459.039 L 386.335 493.539 L 380.335 493.539 C 374.605 493.539 374.335 493.429 374.335 491.039 C 374.335 488.449 372.965 487.709 371.775 489.639 C 370.595 491.539 362.995 494.499 359.335 494.469 C 357.415 494.459 354.085 493.829 351.955 493.069 Z M 368.135 480.869 C 375.925 475.999 376.505 461.279 369.115 456.099 C 366.265 454.099 358.135 454.079 354.305 456.059 C 350.475 458.039 348.335 462.329 348.335 468.039 C 348.335 479.869 358.835 486.679 368.135 480.869 Z M 451.325 493.669 C 443.895 491.229 436.575 484.789 433.885 478.319 C 431.975 473.729 431.865 462.609 433.685 458.259 C 437.195 449.869 445.845 443.669 455.195 442.819 C 474.145 441.099 487.725 458.169 482.155 476.729 C 480.655 481.739 474.265 489.019 469.035 491.689 C 464.625 493.939 455.335 494.979 451.325 493.669 Z M 465.785 479.449 C 472.495 473.559 472.965 463.969 466.855 457.859 C 464.005 455.009 462.855 454.539 458.685 454.549 C 452.665 454.569 449.555 456.099 446.615 460.449 C 442.425 466.669 444.105 475.949 450.175 480.079 C 455.485 483.679 461.225 483.449 465.785 479.449 Z M 596.065 492.119 C 588.385 488.959 583.945 485.429 579.825 479.199 C 570.745 465.489 571.905 447.769 582.665 435.859 C 594.855 422.369 620.635 421.109 634.325 433.329 L 638.475 437.039 L 633.925 441.479 L 629.375 445.919 L 627.105 443.789 C 620.295 437.399 607.825 435.689 598.835 439.909 C 592.855 442.719 591.105 444.549 588.255 450.999 C 584.345 459.829 587.205 470.739 595.075 477.029 C 604.875 484.839 618.445 484.139 625.775 475.429 L 628.635 472.039 L 618.985 471.749 L 609.335 471.469 L 609.335 465.499 L 609.335 459.539 L 626.465 459.539 L 643.595 459.539 L 642.935 464.789 C 641.435 476.739 631.795 489.489 621.655 492.949 C 614.515 495.379 603.095 495.009 596.065 492.119 Z M 705.325 493.669 C 700.305 492.019 696.605 489.579 692.915 485.489 C 687.885 479.929 686.335 475.869 686.335 468.249 C 686.335 452.629 698.725 441.409 714.405 442.819 C 728.075 444.039 737.335 454.229 737.335 468.029 C 737.335 478.669 733.045 486.199 724.265 490.979 C 718.875 493.919 709.955 495.179 705.325 493.669 Z M 718.465 480.969 C 721.795 479.249 725.275 472.789 725.315 468.259 C 725.345 464.179 722.965 459.179 719.825 456.709 C 713.865 452.029 702.715 454.989 699.775 462.029 C 694.405 474.889 706.505 487.159 718.465 480.969 Z M 765.015 493.579 C 760.215 492.039 755.185 487.459 753.015 482.649 C 751.235 478.699 750.875 475.559 750.525 460.789 L 750.105 443.539 L 756.655 443.539 L 763.205 443.539 L 763.515 460.629 L 763.835 477.719 L 766.645 480.129 C 770.725 483.639 775.455 483.379 778.745 479.459 C 781.305 476.429 781.335 476.169 781.335 459.959 L 781.335 443.539 L 787.975 443.539 L 794.605 443.539 L 794.125 460.999 C 793.685 477.069 793.455 478.839 791.185 483.239 C 787.605 490.189 782.205 493.659 774.205 494.119 C 770.705 494.319 766.565 494.079 765.015 493.579 Z M 280.045 492.919 C 279.655 492.529 279.335 481.259 279.335 467.869 L 279.335 443.539 L 285.835 443.539 C 291.615 443.539 292.335 443.759 292.335 445.489 C 292.335 447.369 292.545 447.349 297.585 444.999 C 305.795 441.179 312.965 441.929 318.475 447.189 C 322.625 451.149 323.445 456.159 323.125 475.539 L 322.835 493.039 L 316.835 493.039 L 310.835 493.039 L 310.335 475.439 C 309.745 454.779 309.555 454.299 302.025 454.739 C 297.905 454.989 296.675 455.529 294.935 457.859 C 293.065 460.369 292.785 462.429 292.335 476.859 L 291.835 493.039 L 286.295 493.329 C 283.245 493.499 280.435 493.309 280.045 492.919 Z M 399.335 468.589 L 399.335 443.539 L 404.335 443.539 C 408.665 443.539 409.335 443.809 409.335 445.539 C 409.335 448.129 409.925 448.059 413.515 445.039 C 416.525 442.509 423.575 441.499 424.765 443.429 C 425.075 443.919 424.555 446.399 423.615 448.929 C 422.055 453.119 421.605 453.539 418.645 453.539 C 412.825 453.539 411.915 456.359 411.335 475.989 L 410.835 493.039 L 405.085 493.339 L 399.335 493.639 L 399.335 468.589 Z M 495.335 459.089 L 495.335 424.539 L 501.345 424.539 L 507.365 424.539 L 507.095 458.789 L 506.835 493.039 L 501.085 493.339 L 495.335 493.639 L 495.335 459.089 Z M 520.335 468.539 L 520.335 443.539 L 526.335 443.539 L 532.335 443.539 L 532.335 468.539 L 532.335 493.539 L 526.335 493.539 L 520.335 493.539 L 520.335 468.539 Z M 653.335 468.539 L 653.335 443.439 L 658.585 443.739 C 662.865 443.979 663.805 444.359 663.695 445.789 C 663.515 448.079 664.215 447.999 666.955 445.419 C 669.395 443.139 677.665 441.639 678.685 443.299 C 679.025 443.839 678.585 446.369 677.725 448.919 C 676.265 453.189 675.895 453.539 672.765 453.539 C 666.815 453.539 665.915 456.259 665.335 475.999 L 664.835 493.039 L 659.085 493.339 L 653.335 493.639 L 653.335 468.539 Z M 521.255 436.619 C 519.515 434.869 518.335 432.639 518.335 431.069 C 518.335 427.439 522.475 423.539 526.335 423.539 C 528.285 423.539 530.335 424.449 531.885 425.989 C 533.425 427.539 534.335 429.589 534.335 431.539 C 534.335 435.399 530.435 439.539 526.805 439.539 C 525.235 439.539 523.005 438.359 521.255 436.619 Z" style="fill: rgb(71, 71, 71); stroke-width: 1;"/></svg>